<svg width="46" height="47" viewBox="0 0 46 47" fill="none" xmlns="http://www.w3.org/2000/svg">
<path d="M22.9978 0.465332C10.3738 0.465332 0.140625 10.6985 0.140625 23.3225C0.140625 35.9465 10.3738 46.1796 22.9978 46.1796C35.6218 46.1796 45.8549 35.9465 45.8549 23.3225C45.8549 10.6985 35.6218 0.465332 22.9978 0.465332ZM22.9978 3.77734C27.9772 3.77734 32.5223 5.64019 35.9738 8.70533C33.4378 12.0505 29.5852 14.2779 25.7246 15.7853C23.6206 11.9362 21.0298 7.8779 18.3932 4.32247C19.8686 3.9659 21.4103 3.77734 22.9978 3.77734ZM14.6823 5.6299C17.2298 9.44133 19.6983 12.9762 21.9543 16.9773C16.2503 18.455 9.80694 19.3419 3.85379 19.3568C5.10865 13.2676 9.19891 8.21162 14.6823 5.6299ZM38.1418 10.9659C40.8686 14.3019 42.5109 18.5568 42.5429 23.1933C38.0218 22.303 33.5247 22.0688 28.9475 22.5305C28.4321 21.247 27.8092 20.0288 27.2115 18.7133C31.1578 17.1213 35.3772 14.3968 38.1418 10.9659ZM23.5418 20.0013C24.0309 21.0425 24.5978 22.1453 25.1292 23.2733C18.7635 26.0802 11.9932 29.831 8.47778 36.407C5.35435 32.943 3.45264 28.3533 3.45264 23.3225C3.45264 23.1316 3.45606 22.9408 3.46177 22.751C10.2789 22.7179 16.9704 21.8653 23.5418 20.0013ZM42.4766 24.9499C42.4709 25.0253 42.4641 25.1019 42.4561 25.1773C42.4641 25.1019 42.4709 25.0265 42.4766 24.9499ZM33.8698 25.3305C36.7109 25.3213 39.6469 25.7179 42.2995 26.4162C41.4321 31.8745 38.3029 36.5819 33.9029 39.5442C32.8538 34.7728 31.8538 30.2071 30.0858 25.6036C31.3052 25.4219 32.5783 25.3339 33.8698 25.3305ZM42.4012 25.6848C42.3875 25.7968 42.3749 25.9065 42.3589 26.0173C42.3749 25.9053 42.3887 25.7956 42.4012 25.6848ZM26.4686 26.4973C28.2709 31.151 29.6846 36.3053 30.6332 41.3213C28.2869 42.3179 25.7075 42.8688 22.9978 42.8688C18.4778 42.8688 14.3155 41.3328 11.0046 38.7556C14.5441 33.0128 20.0264 28.6676 26.4686 26.4973Z" fill="#9300FC"/>
</svg>
