<svg width="48" height="32" viewBox="0 0 48 32" fill="none" xmlns="http://www.w3.org/2000/svg">
<g filter="url(#filter0_d_162_126)">
<path d="M13.9142 0.408691C15.323 0.408691 16.6038 0.525128 17.7682 0.781288C18.9209 1.0258 19.9106 1.43333 20.749 2.00387C21.5757 2.56277 22.2161 3.3196 22.6702 4.2511C23.1243 5.18259 23.3455 6.34695 23.3455 7.7209C23.3455 9.21129 23.0079 10.4455 22.3325 11.4469C21.6572 12.4366 20.6558 13.2516 19.3168 13.8804C21.1332 14.4044 22.4839 15.3242 23.3688 16.6283C24.2654 17.944 24.7078 19.5159 24.7078 21.3673C24.7078 22.8693 24.4167 24.1501 23.8462 25.233C23.264 26.3275 22.4839 27.224 21.5058 27.911C20.5278 28.598 19.41 29.1103 18.1525 29.448C16.9066 29.774 15.6141 29.9486 14.2984 29.9486H0V0.408691H13.9142ZM13.0758 12.3318C14.2285 12.3318 15.1833 12.064 15.9402 11.5051C16.6854 10.9578 17.0463 10.0613 17.0463 8.81541C17.0463 8.12843 16.9299 7.55789 16.6854 7.11543C16.4292 6.67298 16.1032 6.33531 15.684 6.09079C15.2648 5.83463 14.7991 5.67162 14.2518 5.56683C13.7162 5.46204 13.1573 5.41546 12.5751 5.41546H6.49716V12.3201H13.0758V12.3318ZM13.4368 24.9069C14.0772 24.9069 14.6826 24.8487 15.2648 24.7206C15.847 24.5926 16.3593 24.3946 16.8018 24.0919C17.2326 23.8008 17.5936 23.4165 17.8614 22.9159C18.1292 22.4152 18.2456 21.7748 18.2456 21.0063C18.2456 19.481 17.8148 18.4098 16.9648 17.7461C16.1148 17.094 14.9737 16.7797 13.5765 16.7797H6.5088V24.9069H13.4368Z" fill="#9300FC"/>
<path d="M33.9878 24.8026C34.8727 25.6643 36.1419 26.0951 37.7837 26.0951C38.9713 26.0951 39.996 25.7923 40.8459 25.1985C41.6959 24.6047 42.2199 23.9643 42.4178 23.3006H47.5876C46.7609 25.8738 45.4918 27.7135 43.7801 28.8197C42.0802 29.9258 40.0076 30.4847 37.5857 30.4847C35.8974 30.4847 34.3837 30.2169 33.0214 29.6697C31.6591 29.1224 30.5297 28.3656 29.5749 27.3759C28.6434 26.3745 27.9215 25.1985 27.4092 23.8129C26.8968 22.439 26.6407 20.9137 26.6407 19.2603C26.6407 17.6651 26.9085 16.163 27.4325 14.7891C27.9681 13.4035 28.7016 12.2042 29.668 11.2028C30.6345 10.1899 31.7872 9.39808 33.1378 8.8159C34.4769 8.23372 35.9556 7.94263 37.5974 7.94263C39.4021 7.94263 40.9857 8.29193 42.348 9.0022C43.6986 9.70082 44.8048 10.644 45.6781 11.8316C46.5513 13.0193 47.1684 14.3699 47.5527 15.8836C47.9369 17.3973 48.0766 18.9808 47.9602 20.6458H32.5324C32.5324 22.3458 33.1029 23.9526 33.9878 24.8026ZM40.7295 13.5782C40.0309 12.8097 38.8549 12.3905 37.4111 12.3905C36.4679 12.3905 35.6994 12.5535 35.0707 12.8679C34.4652 13.1823 33.9645 13.5782 33.5803 14.0439C33.1961 14.5213 32.9399 15.022 32.7885 15.5459C32.6372 16.0699 32.544 16.5356 32.5207 16.9548H42.0802C41.9521 15.4644 41.4398 14.3583 40.7295 13.5782Z" fill="#9300FC"/>
<path d="M43.3017 2.38721H31.332V5.29812H43.3017V2.38721Z" fill="#9300FC"/>
</g>
<defs>
<filter id="filter0_d_162_126" x="-4" y="0.408691" width="56.0001" height="38.076" filterUnits="userSpaceOnUse" color-interpolation-filters="sRGB">
<feFlood flood-opacity="0" result="BackgroundImageFix"/>
<feColorMatrix in="SourceAlpha" type="matrix" values="0 0 0 0 0 0 0 0 0 0 0 0 0 0 0 0 0 0 127 0" result="hardAlpha"/>
<feOffset dy="4"/>
<feGaussianBlur stdDeviation="2"/>
<feComposite in2="hardAlpha" operator="out"/>
<feColorMatrix type="matrix" values="0 0 0 0 0 0 0 0 0 0 0 0 0 0 0 0 0 0 0.25 0"/>
<feBlend mode="normal" in2="BackgroundImageFix" result="effect1_dropShadow_162_126"/>
<feBlend mode="normal" in="SourceGraphic" in2="effect1_dropShadow_162_126" result="shape"/>
</filter>
</defs>
</svg>
