<svg width="48" height="30" viewBox="0 0 48 30" fill="none" xmlns="http://www.w3.org/2000/svg">
<path d="M1.62075 0.322754C3.29919 0.322754 5.85681 0.322754 7.29547 0.322754C8.0148 0.322754 8.57428 0.802308 8.81406 1.44171C9.53339 3.51978 11.1319 8.07554 12.9702 11.1926C15.4479 15.2689 17.0464 16.7874 18.0854 16.6276C19.1245 16.3878 18.8048 13.6703 18.8048 11.5123C18.8048 9.35435 19.0445 5.67777 18.0055 3.99933L16.407 1.68149C16.0074 1.12201 16.407 0.40268 17.0464 0.40268H26.1579C27.0371 0.40268 27.7564 1.12201 27.7564 2.00119V13.5904C27.7564 13.5904 28.1561 15.6685 30.394 13.5105C32.6319 11.3525 35.0297 7.35621 37.0278 3.28L37.8271 1.36179C38.0668 0.802308 38.6263 0.40268 39.2657 0.40268H45.1802C46.2992 0.40268 47.0984 1.52164 46.6988 2.56067L46.0594 4.23911C46.0594 4.23911 43.9014 8.5551 41.6635 11.5923C39.4256 14.7094 38.946 15.4287 39.2657 16.228C39.5854 17.0272 45.3401 22.3822 46.7787 24.9399C47.1784 25.6592 47.4981 26.2986 47.8178 26.8581C48.3773 27.8971 47.578 29.2558 46.3791 29.2558H39.6654C39.1059 29.2558 38.5464 28.9361 38.3066 28.4566L37.6672 27.4176C37.6672 27.4176 33.591 22.622 31.1133 21.1034C28.5557 19.6648 28.6356 21.7428 28.6356 21.7428V25.9789C28.6356 27.7373 27.197 29.1759 25.4386 29.1759H23.8401C23.8401 29.1759 15.0483 29.1759 8.0148 18.7057C2.49993 10.5532 0.661643 5.27814 0.0222376 2.24097C-0.137614 1.28186 0.581717 0.322754 1.62075 0.322754Z" fill="#9300FC"/>
</svg>
