<svg width="44" height="44" viewBox="0 0 44 44" fill="none" xmlns="http://www.w3.org/2000/svg">
<path d="M1.01486 14.7045H10.0118V43.6353H1.01486V14.7045ZM5.53007 0.322754C8.40642 0.322754 10.7476 2.66397 10.7476 5.54032C10.7476 8.41667 8.40642 10.7579 5.53007 10.7579C2.63699 10.7579 0.3125 8.41667 0.3125 5.54032C0.3125 2.66397 2.63699 0.322754 5.53007 0.322754Z" fill="#9300FC"/>
<path d="M15.6642 14.704H24.2765V18.6673H24.3936C25.5976 16.393 28.5242 14.0016 32.9056 14.0016C42.0029 14.0016 43.6919 19.9884 43.6919 27.7813V43.6347H34.7116V29.5707C34.7116 26.2094 34.6615 21.8948 30.0459 21.8948C25.3635 21.8948 24.6611 25.5572 24.6611 29.3198V43.6347H15.6809V14.704H15.6642Z" fill="#9300FC"/>
</svg>
